<svg data-v-423bf9ae="" xmlns="http://www.w3.org/2000/svg" viewBox="0 0 262.17856853652967 60" class="font"><!----><!----><!----><g data-v-423bf9ae="" id="1d911e55-64d8-48e3-a103-83d0673c345e" fill="white" transform="matrix(5.357142948374458,0,0,5.357142948374458,-3.749996331577364,-5.62499960192612)"><path d="M0.70 12.02L0.70 12.02L0.70 1.27L0.70 1.27Q0.70 1.05 0.92 1.05L0.92 1.05L4.44 1.05L4.44 1.05Q5.43 1.05 5.94 1.57L5.94 1.57L5.94 1.57Q6.45 2.08 6.45 3.07L6.45 3.07L6.45 6.48L6.45 6.48Q6.45 7.89 5.43 8.33L5.43 8.33L6.40 12.00L6.40 12.00Q6.46 12.25 6.20 12.25L6.20 12.25L4.74 12.25L4.74 12.25Q4.55 12.25 4.50 12.05L4.50 12.05L3.57 8.50L2.60 8.50L2.60 12.02L2.60 12.02Q2.60 12.13 2.54 12.19L2.54 12.19L2.54 12.19Q2.48 12.25 2.38 12.25L2.38 12.25L0.92 12.25L0.92 12.25Q0.82 12.25 0.76 12.19L0.76 12.19L0.76 12.19Q0.70 12.13 0.70 12.02ZM2.60 2.90L2.60 6.65L3.99 6.65L3.99 6.65Q4.55 6.65 4.55 6.09L4.55 6.09L4.55 3.46L4.55 3.46Q4.55 2.90 3.99 2.90L3.99 2.90L2.60 2.90ZM7.85 10.23L7.85 10.23L7.85 4.46L7.85 4.46Q7.85 3.47 8.36 2.96L8.36 2.96L8.36 2.96Q8.87 2.45 9.86 2.45L9.86 2.45L11.44 2.45L11.44 2.45Q12.43 2.45 12.94 2.96L12.94 2.96L12.94 2.96Q13.45 3.47 13.45 4.46L13.45 4.46L13.45 10.23L13.45 10.23Q13.45 11.22 12.94 11.74L12.94 11.74L12.94 11.74Q12.43 12.25 11.44 12.25L11.44 12.25L9.86 12.25L9.86 12.25Q8.87 12.25 8.36 11.74L8.36 11.74L8.36 11.74Q7.85 11.22 7.85 10.23ZM9.67 4.82L9.67 9.88L9.67 9.88Q9.67 10.45 10.23 10.45L10.23 10.45L11.13 10.45L11.13 10.45Q11.69 10.45 11.69 9.88L11.69 9.88L11.69 4.82L11.69 4.82Q11.69 4.26 11.13 4.26L11.13 4.26L10.23 4.26L10.23 4.26Q9.67 4.26 9.67 4.82L9.67 4.82ZM14.85 12.02L14.85 12.02L14.85 2.67L14.85 2.67Q14.85 2.57 14.91 2.51L14.91 2.51L14.91 2.51Q14.97 2.45 15.07 2.45L15.07 2.45L16.18 2.45L16.18 2.45Q16.35 2.45 16.43 2.63L16.43 2.63L19.07 7.98L19.07 2.67L19.07 2.67Q19.07 2.45 19.29 2.45L19.29 2.45L20.60 2.45L20.60 2.45Q20.71 2.45 20.77 2.51L20.77 2.51L20.77 2.51Q20.83 2.57 20.83 2.67L20.83 2.67L20.83 12.02L20.83 12.02Q20.83 12.13 20.77 12.19L20.77 12.19L20.77 12.19Q20.71 12.25 20.60 12.25L20.60 12.25L19.50 12.25L19.50 12.25Q19.33 12.25 19.24 12.07L19.24 12.07L16.61 6.72L16.61 12.02L16.61 12.02Q16.61 12.25 16.39 12.25L16.39 12.25L15.07 12.25L15.07 12.25Q14.97 12.25 14.91 12.19L14.91 12.19L14.91 12.19Q14.85 12.13 14.85 12.02ZM22.22 12.02L22.22 12.02L22.22 1.27L22.22 1.27Q22.22 1.05 22.45 1.05L22.45 1.05L25.96 1.05L25.96 1.05Q26.95 1.05 27.47 1.57L27.47 1.57L27.47 1.57Q27.98 2.08 27.98 3.07L27.98 3.07L27.98 6.48L27.98 6.48Q27.98 7.89 26.96 8.33L26.96 8.33L27.92 12.00L27.92 12.00Q27.99 12.25 27.73 12.25L27.73 12.25L26.27 12.25L26.27 12.25Q26.07 12.25 26.03 12.05L26.03 12.05L25.09 8.50L24.13 8.50L24.13 12.02L24.13 12.02Q24.13 12.13 24.07 12.19L24.07 12.19L24.07 12.19Q24.01 12.25 23.91 12.25L23.91 12.25L22.45 12.25L22.45 12.25Q22.35 12.25 22.29 12.19L22.29 12.19L22.29 12.19Q22.22 12.13 22.22 12.02ZM24.13 2.90L24.13 6.65L25.52 6.65L25.52 6.65Q26.08 6.65 26.08 6.09L26.08 6.09L26.08 3.46L26.08 3.46Q26.08 2.90 25.52 2.90L25.52 2.90L24.13 2.90ZM29.37 10.23L29.37 10.23L29.37 4.46L29.37 4.46Q29.37 3.47 29.89 2.96L29.89 2.96L29.89 2.96Q30.40 2.45 31.39 2.45L31.39 2.45L32.96 2.45L32.96 2.45Q33.95 2.45 34.47 2.96L34.47 2.96L34.47 2.96Q34.98 3.47 34.98 4.46L34.98 4.46L34.98 10.23L34.98 10.23Q34.98 11.22 34.47 11.74L34.47 11.74L34.47 11.74Q33.95 12.25 32.96 12.25L32.96 12.25L31.39 12.25L31.39 12.25Q30.40 12.25 29.89 11.74L29.89 11.74L29.89 11.74Q29.37 11.22 29.37 10.23ZM31.20 4.82L31.20 9.88L31.20 9.88Q31.20 10.45 31.76 10.45L31.76 10.45L32.66 10.45L32.66 10.45Q33.22 10.45 33.22 9.88L33.22 9.88L33.22 4.82L33.22 4.82Q33.22 4.26 32.66 4.26L32.66 4.26L31.76 4.26L31.76 4.26Q31.20 4.26 31.20 4.82L31.20 4.82ZM36.37 10.23L36.37 10.23L36.37 4.46L36.37 4.46Q36.37 3.47 36.89 2.96L36.89 2.96L36.89 2.96Q37.41 2.45 38.40 2.45L38.40 2.45L39.98 2.45L39.98 2.45Q40.95 2.45 41.47 2.96L41.47 2.96L41.47 2.96Q41.99 3.48 41.99 4.46L41.99 4.46L41.99 5.97L41.99 5.97Q41.99 6.08 41.93 6.14L41.93 6.14L41.93 6.14Q41.87 6.20 41.77 6.20L41.77 6.20L40.45 6.20L40.45 6.20Q40.23 6.20 40.23 5.97L40.23 5.97L40.23 4.83L40.23 4.83Q40.23 4.27 39.67 4.27L39.67 4.27L38.77 4.27L38.77 4.27Q38.21 4.27 38.21 4.83L38.21 4.83L38.21 9.91L38.21 9.91Q38.21 10.47 38.77 10.47L38.77 10.47L39.67 10.47L39.67 10.47Q40.23 10.47 40.23 9.91L40.23 9.91L40.23 8.72L40.23 8.72Q40.23 8.50 40.45 8.50L40.45 8.50L41.77 8.50L41.77 8.50Q41.87 8.50 41.93 8.56L41.93 8.56L41.93 8.56Q41.99 8.62 41.99 8.72L41.99 8.72L41.99 10.23L41.99 10.23Q41.99 11.22 41.47 11.73L41.47 11.73L41.47 11.73Q40.95 12.25 39.98 12.25L39.98 12.25L38.40 12.25L38.40 12.25Q37.41 12.25 36.89 11.74L36.89 11.74L36.89 11.74Q36.37 11.22 36.37 10.23ZM43.39 11.97L43.39 11.97L43.39 2.73L43.39 2.73Q43.39 2.45 43.67 2.45L43.67 2.45L45.01 2.45L45.01 2.45Q45.29 2.45 45.29 2.73L45.29 2.73L45.29 6.37L47.45 2.66L47.45 2.66Q47.56 2.45 47.77 2.45L47.77 2.45L49.24 2.45L49.24 2.45Q49.40 2.45 49.46 2.55L49.46 2.55L49.46 2.55Q49.52 2.65 49.44 2.79L49.44 2.79L47.06 6.97L49.59 11.93L49.59 11.93Q49.64 12.00 49.64 12.07L49.64 12.07L49.64 12.07Q49.64 12.11 49.61 12.15L49.61 12.15L49.61 12.15Q49.55 12.25 49.38 12.25L49.38 12.25L47.90 12.25L47.90 12.25Q47.68 12.25 47.58 12.04L47.58 12.04L45.81 8.58L45.29 9.58L45.29 11.97L45.29 11.97Q45.29 12.25 45.01 12.25L45.01 12.25L43.67 12.25L43.67 12.25Q43.39 12.25 43.39 11.97Z"></path></g><!----><!----></svg>